<?xml version="1.0" standalone="no"?>
<!DOCTYPE svg PUBLIC "-//W3C//DTD SVG 20010904//EN"
 "http://www.w3.org/TR/2001/REC-SVG-20010904/DTD/svg10.dtd">
<svg version="1.0" xmlns="http://www.w3.org/2000/svg"
 width="1086.000000pt" height="606.000000pt" viewBox="0 0 1086.000000 606.000000"
 preserveAspectRatio="xMidYMid meet">

<g transform="translate(0.000000,606.000000) scale(0.100000,-0.100000)"
fill="#000000" stroke="none">
<path d="M907 3439 c-106 -25 -212 -111 -263 -214 -27 -55 -29 -69 -29 -170 0
-101 2 -115 29 -170 54 -109 164 -192 285 -215 29 -5 122 -10 205 -10 125 0
156 -3 175 -17 14 -9 21 -11 17 -5 -5 9 32 12 149 12 l156 0 -7 23 c-25 82
-85 162 -157 210 -83 55 -138 67 -317 67 -87 0 -171 5 -188 11 -39 13 -62 48
-62 94 0 90 34 105 233 105 183 0 234 12 300 70 54 47 97 129 97 182 l0 38
-292 -1 c-161 -1 -310 -5 -331 -10z"/>
<path d="M1760 3054 l0 -399 535 0 535 0 0 399 0 399 -46 -7 c-61 -8 -138 -51
-180 -99 -52 -61 -64 -111 -64 -264 l0 -133 -250 0 -250 0 0 143 c0 116 -4
149 -19 183 -40 87 -128 155 -220 170 l-41 7 0 -399z"/>
<path d="M4390 3417 c0 -44 53 -149 92 -182 75 -63 98 -69 300 -75 180 -5 187
-6 212 -29 34 -32 42 -80 22 -120 -31 -58 -46 -61 -351 -61 l-275 0 0 -150 0
-150 141 0 140 0 -3 -47 -3 -48 -139 0 -138 0 4 -95 c3 -81 8 -102 30 -141 50
-84 126 -136 226 -153 l32 -5 0 249 0 250 138 0 c202 0 291 28 383 120 179
179 146 471 -68 608 -86 55 -135 62 -455 62 l-288 0 0 -33z"/>
<path d="M5434 3408 c15 -92 75 -176 159 -220 38 -20 60 -23 230 -28 l189 -5
29 -33 c39 -44 39 -90 0 -134 l-29 -33 -292 -3 -291 -3 3 -287 c3 -273 4 -289
25 -328 50 -93 122 -149 212 -163 l51 -8 0 193 0 194 -140 0 -140 0 0 49 0 48
273 7 c149 4 297 12 327 18 121 23 228 106 283 217 29 61 32 74 32 166 0 93
-2 105 -33 165 -54 109 -131 177 -238 210 -60 18 -93 20 -361 20 l-296 0 7
-42z"/>
<path d="M8349 3169 c-78 -156 -167 -338 -199 -404 l-56 -120 163 0 163 0 36
80 36 80 38 -75 38 -75 165 -5 165 -5 -200 400 c-110 220 -202 402 -204 404
-1 2 -67 -124 -145 -280z"/>
<path d="M9419 3434 c-63 -19 -140 -90 -170 -156 -23 -51 -24 -62 -27 -340
l-3 -288 145 0 146 0 0 400 0 400 -22 -1 c-13 0 -44 -7 -69 -15z"/>
<path d="M1351 2555 c0 -17 -8 -41 -17 -54 -34 -48 -60 -51 -405 -51 l-322 0
5 -43 c14 -120 106 -212 239 -237 64 -12 362 -13 446 -1 124 18 240 96 295
198 27 49 57 167 46 179 -4 3 -67 5 -142 5 -121 -2 -135 0 -139 16 -3 11 -5 5
-6 -12z"/>
<path d="M8365 2560 c-4 -6 -69 -10 -164 -10 l-157 0 -97 -189 c-53 -103 -97
-191 -97 -195 0 -10 412 -7 469 4 133 25 225 117 239 237 l5 43 -117 0 c-132
0 -128 -4 -85 83 17 33 20 53 4 27z"/>
<path d="M8925 2560 c-3 -5 -67 -8 -155 -7 -83 1 -150 1 -150 -1 0 -2 34 -70
76 -153 80 -158 106 -188 194 -218 51 -17 240 -27 240 -12 0 17 -181 375 -191
379 -5 2 -7 8 -3 13 3 5 3 9 0 9 -3 0 -8 -4 -11 -10z"/>
<path d="M1887 2552 l-129 -3 4 -92 c4 -105 21 -150 78 -207 42 -42 99 -71
158 -80 l42 -7 0 197 c0 151 -3 196 -12 196 -7 -1 -71 -2 -141 -4z"/>
<path d="M2544 2551 c-2 -2 -4 -91 -4 -196 l0 -192 51 8 c141 22 227 131 237
299 l4 85 -142 0 c-78 0 -144 -2 -146 -4z"/>
<path d="M9223 2545 c-2 -6 -2 -94 -1 -195 l3 -185 395 0 c365 0 399 1 444 19
95 36 170 127 183 221 l6 45 -369 2 -369 3 -3 47 -3 47 -141 3 c-90 2 -142 -1
-145 -7z"/>
</g>
</svg>
